<svg xmlns="http://www.w3.org/2000/svg" xmlns:xlink="http://www.w3.org/1999/xlink" version="1.1" x="0px" y="0px" viewBox="0 0 44.0664 66.8725" enable-background="new 0 0 44.0664 53.498" xml:space="preserve"><path d="M41.2314,53.498c0.7256,0,1.4512-0.2764,2.0049-0.8301c1.1064-1.1069,1.1064-2.9019,0-4.0088L21.0195,26.4429L42.624,4.8389  c1.1074-1.1069,1.1074-2.9019,0.001-4.0088c-1.1074-1.1074-2.9033-1.1064-4.0088,0L13.002,26.4429L39.2275,52.668  C39.7803,53.2217,40.5059,53.498,41.2314,53.498z"/><path d="M29.624,4.8389c1.1074-1.1069,1.1074-2.9014,0.001-4.0088c-1.1074-1.1074-2.9033-1.1074-4.0088,0L0,26.4429L26.2256,52.668  c0.5527,0.5537,1.2783,0.8301,2.0039,0.8301s1.4512-0.2764,2.0049-0.8301c1.1064-1.1069,1.1064-2.9019,0-4.0088L8.0176,26.4429  L29.624,4.8389z"/><text x="0" y="68.49799999999999" fill="#000000" font-size="5px" font-weight="bold" font-family="'Helvetica Neue', Helvetica, Arial-Unicode, Arial, Sans-serif">Created by Michele Ficeli</text><text x="0" y="73.49799999999999" fill="#000000" font-size="5px" font-weight="bold" font-family="'Helvetica Neue', Helvetica, Arial-Unicode, Arial, Sans-serif">from the Noun Project</text></svg>